<svg id="Capa_1" enable-background="new 0 0 512 512" height="512" viewBox="0 0 512 512" width="512" xmlns="http://www.w3.org/2000/svg"><g><path d="m406 31.417h-74.976v-16.417c0-8.284-6.716-15-15-15h-120.1c-8.284 0-15 6.716-15 15v16.417h-74.924c-24.813 0-45 20.187-45 45v390.583c0 24.813 20.187 45 45 45h300c24.813 0 45-20.187 45-45v-390.583c0-24.813-20.186-45-45-45zm-104.976-1.417v30.569h-90.1c0-13.418 0-17.052 0-30.569zm-195.024 31.417h74.925v14.152c0 8.284 6.716 15 15 15h120.1c8.284 0 15-6.716 15-15v-14.152h74.975c8.271 0 15 6.729 15 15v44.583h-330v-44.583c0-8.271 6.729-15 15-15zm300 420.583h-300c-8.271 0-15-6.729-15-15v-316h330v316c0 8.271-6.728 15-15 15z"/><path d="m135.949 211h120c8.284 0 15-6.716 15-15s-6.716-15-15-15h-120c-8.284 0-15 6.716-15 15s6.716 15 15 15z"/><path d="m256 241h-120c-8.284 0-15 6.716-15 15s6.716 15 15 15h120c8.284 0 15-6.716 15-15s-6.716-15-15-15z"/><path d="m135.949 331h239.976c8.284 0 15-6.716 15-15s-6.716-15-15-15h-239.976c-8.284 0-15 6.716-15 15s6.716 15 15 15z"/><path d="m375.949 361h-240c-8.284 0-15 6.716-15 15s6.716 15 15 15h240c8.284 0 15-6.716 15-15s-6.716-15-15-15z"/><path d="m375.949 421h-240c-8.284 0-15 6.716-15 15s6.716 15 15 15h240c8.284 0 15-6.716 15-15s-6.716-15-15-15z"/><path d="m375.975 211h-15v-15c0-8.284-6.716-15-15-15s-15 6.716-15 15v15h-15c-8.284 0-15 6.716-15 15s6.716 15 15 15h15v15.209c0 8.284 6.716 15 15 15s15-6.716 15-15v-15.209h15c8.284 0 15-6.716 15-15s-6.716-15-15-15z"/></g></svg>